<svg xmlns="http://www.w3.org/2000/svg" viewBox="0 0 320 220" role="img"><title>Quick Velociraptor</title><g stroke="#173b39" stroke-width="7" stroke-linecap="round" stroke-linejoin="round"><path fill="#91b84a" d="M30 135Q75 84 148 96L196 65Q245 56 282 81L250 119L195 119Q178 160 134 169Q75 178 30 135Z"/><circle cx="251" cy="78" r="5" fill="#173b39" stroke="none"/><path d="M104 162l-18 29 30-8M157 161l12 32 17-16M177 116l-21 15 22 5M34 132L9 111"/><path fill="none" d="M88 102q8-21 19 0m22-5q8-21 18 0"/></g></svg>